C:\Users\israe\Dropbox\PhDWork\ExperimentalData/subject1/055/P1S055W01_EMG(MVC)_40ms.mot
nRows=17
nColumns=16

name C:\Users\israe\Dropbox\PhDWork\ExperimentalData/subject1/055/P1S055W01_EMG(MVC)_40ms.mot
datacolumns 16
datarows 17
range 0.9900000000 1.0060000000
endheader
time	BF	ST	VL	VM	RF	TFL	GE	GA	TA	GL	GM	SO	ES	MF	VI_a
        0.9900000000	        0.0880056664	        0.0889824702	        0.0143356440	        0.0297935221	        0.0151308571	        0.0302894926	        0.0624986685	        0.0118905149	        0.0806254606	        0.0372224118	        0.0224270731	        0.0240452214	        0.8899891283	        0.8887343439	        0.0220645831	
        0.9910000000	        0.0879146218	        0.0883935704	        0.0144641053	        0.0299460549	        0.0151764412	        0.0303788076	        0.0624379991	        0.0118846956	        0.0811751078	        0.0373051866	        0.0224135021	        0.0240817626	        0.8899546560	        0.8888229256	        0.0222050801	
        0.9920000000	        0.0878182615	        0.0878002757	        0.0145936130	        0.0301005676	        0.0152224333	        0.0304670388	        0.0623760396	        0.0118809144	        0.0817437505	        0.0373859926	        0.0223998239	        0.0241194383	        0.8899197183	        0.8889135071	        0.0223470903	
        0.9930000000	        0.0877175337	        0.0872033293	        0.0147240612	        0.0302566932	        0.0152689637	        0.0305540814	        0.0623130562	        0.0118790946	        0.0823306248	        0.0374650322	        0.0223862988	        0.0241585376	        0.8898844812	        0.8890060091	        0.0224903772	
        0.9940000000	        0.0876131483	        0.0866034891	        0.0148553391	        0.0304141136	        0.0153161831	        0.0306398394	        0.0622496057	        0.0118791544	        0.0829348402	        0.0375424708	        0.0223731518	        0.0241993741	        0.8898487359	        0.8890999920	        0.0226347263	
        0.9950000000	        0.0875056175	        0.0860015547	        0.0149873132	        0.0305725867	        0.0153642427	        0.0307242677	        0.0621864053	        0.0118810178	        0.0835553005	        0.0376184421	        0.0223605684	        0.0242422747	        0.8898118272	        0.8891950168	        0.0227799500	
        0.9960000000	        0.0873952972	        0.0853984433	        0.0151198202	        0.0307319149	        0.0154132658	        0.0308073468	        0.0621241580	        0.0118845967	        0.0841906792	        0.0376930440	        0.0223487004	        0.0242875809	        0.8897730527	        0.8892909882	        0.0229258675	
        0.9970000000	        0.0872824413	        0.0847952270	        0.0152526752	        0.0308918878	        0.0154633286	        0.0308890250	        0.0620634301	        0.0118897720	        0.0848395356	        0.0377663389	        0.0223376533	        0.0243356241	        0.8897320625	        0.8893881825	        0.0230722815	
        0.9980000000	        0.0871672181	        0.0841930331	        0.0153856811	        0.0310522395	        0.0155144578	        0.0309691787	        0.0620046424	        0.0118963973	        0.0855006059	        0.0378383247	        0.0223274707	        0.0243866829	        0.8896889156	        0.8894871281	        0.0232189603	
        0.9990000000	        0.0870496687	        0.0835928781	        0.0155186292	        0.0312126510	        0.0155666363	        0.0310476131	        0.0619481175	        0.0119043071	        0.0861731415	        0.0379089065	        0.0223181380	        0.0244409736	        0.8896439873	        0.8895884781	        0.0233656401	
        1.0000000000	        0.0869296695	        0.0829955892	        0.0156512982	        0.0313728232	        0.0156198098	        0.0311240855	        0.0618941125	        0.0119133156	        0.0868570545	        0.0379779407	        0.0223096074	        0.0244986737	        0.8895978701	        0.8896928902	        0.0235120607	
        1.0010000000	        0.0868069839	        0.0824018280	        0.0157834514	        0.0315325714	        0.0156739022	        0.0311983168	        0.0618428086	        0.0119232279	        0.0875529035	        0.0380453113	        0.0223018143	        0.0245599369	        0.8895512662	        0.8898009180	        0.0236580114	
        1.0020000000	        0.0866813783	        0.0818121064	        0.0159148318	        0.0316918503	        0.0157288266	        0.0312699893	        0.0617942619	        0.0119338595	        0.0882617930	        0.0381109541	        0.0222946699	        0.0246248872	        0.8895048776	        0.8899128396	        0.0238033411	
        1.0030000000	        0.0865526625	        0.0812267714	        0.0160451590	        0.0318507109	        0.0157844731	        0.0313387498	        0.0617483816	        0.0119450329	        0.0889851340	        0.0381748517	        0.0222880766	        0.0246936064	        0.8894592101	        0.8900283870	        0.0239479350	
        1.0040000000	        0.0864206347	        0.0806459962	        0.0161741362	        0.0320092520	        0.0158406921	        0.0314042165	        0.0617049848	        0.0119565519	        0.0897244004	        0.0382370294	        0.0222819636	        0.0247661375	        0.8894142522	        0.8901467065	        0.0240916941	
        1.0050000000	        0.0862850536	        0.0800697874	        0.0163014634	        0.0321675912	        0.0158972893	        0.0314659984	        0.0616638662	        0.0119681865	        0.0904809882	        0.0382975191	        0.0222762766	        0.0248425062	        0.8893693989	        0.8902667509	        0.0242345273	
        1.0060000000	        0.0861457095	        0.0794980126	        0.0164268492	        0.0323258395	        0.0159540228	        0.0315237486	        0.0616247904	        0.0119796842	        0.0912561282	        0.0383563105	        0.0222709215	        0.0249227369	        0.8893238555	        0.8903876631	        0.0243763443	
